<svg width="1024" height="1024" viewBox="0 0 1024 1024" fill="none" xmlns="http://www.w3.org/2000/svg">
<path d="M0 1024V512V0H1024V1024H0Z" fill="white"/>
<path fill-rule="evenodd" clip-rule="evenodd" d="M653.773 26.0129C656.39 25.826 662.185 27.6952 666.858 29.9382C671.531 32.3682 677.138 37.2281 679.568 40.7796C681.811 44.3311 684.241 50.3126 684.989 53.8641C685.55 57.4156 685.176 63.397 684.054 66.9485C682.933 70.5 679.755 75.9207 676.765 78.9114C673.961 81.9022 667.792 86.0144 663.119 88.0705C657.138 90.6874 652.839 91.2482 648.166 90.3136C644.614 89.5659 638.446 87.3229 634.521 85.4537C630.782 83.5845 624.053 81.9022 619.567 81.9022C615.268 81.9022 606.296 83.3975 599.566 85.4537C592.837 87.5098 582.37 92.5566 576.201 96.482C570.033 100.407 561.621 107.51 557.322 111.996C553.21 116.482 547.602 123.959 544.986 128.632C542.182 133.305 538.63 142.091 536.948 148.259C535.266 154.427 534.144 159.661 534.518 159.661C534.892 159.848 546.107 161.343 559.378 163.026C572.65 164.708 589.473 167.512 609.847 172.746L610.782 276.3L600.875 272.374C595.641 270.131 586.856 266.954 581.809 265.084C576.575 263.215 565.36 260.224 556.575 258.355C544.986 255.738 533.023 254.804 512.648 254.991C493.022 254.991 479.75 255.925 468.722 258.355C459.937 260.038 445.17 264.15 436.011 267.327C426.852 270.505 418.44 273.683 417.506 274.617C416.384 275.552 414.889 276.3 414.141 276.3C413.393 276.3 412.646 253.121 412.646 173.493L419.562 171.624C423.487 170.689 433.394 168.446 441.618 166.951C449.843 165.269 463.675 163.026 487.975 159.474L491.9 142.651C494.143 133.305 498.816 120.408 502.181 113.679C505.545 106.95 510.779 98.1643 513.583 94.052C516.387 89.9398 524.05 81.5283 530.593 75.3599C537.322 69.1916 548.537 60.5932 555.64 56.294C562.93 51.9949 575.267 46.3873 583.117 43.7704C591.155 41.1535 604.239 38.3497 612.09 37.7889C621.81 37.0412 628.352 35.5459 631.717 33.1159C634.707 31.2467 639.754 28.8167 642.932 27.8821C646.297 26.9475 651.156 26.0129 653.773 26.0129ZM384.047 183.213C385.916 183.026 386.477 194.802 386.29 290.506L373.019 300.786C365.729 306.394 354.327 316.861 347.597 324.151C341.055 331.254 330.961 343.404 325.541 351.255C320.12 358.919 311.896 373.124 307.223 383.031C302.55 392.751 297.129 406.209 295.073 412.939C293.017 419.481 290.587 429.388 288.344 444.715H736.018V440.416C736.018 438.173 733.775 428.64 731.158 419.481C728.542 410.135 721.812 393.312 716.392 382.097C710.784 370.695 701.812 355.554 696.391 348.451C690.971 341.161 680.316 328.824 672.465 321.161C664.802 313.31 653.586 303.403 636.951 291.44V237.233C636.951 186.765 637.137 183.026 640.128 183.026C641.997 183.026 650.97 185.83 660.316 189.195C669.475 192.746 686.298 200.223 697.7 205.831C708.915 211.625 727.794 222.653 739.757 230.691C751.533 238.542 765.739 249.009 771.533 253.682C777.141 258.355 789.291 269.384 798.263 278.169C807.422 286.954 821.628 302.655 830.04 312.936C838.264 323.217 850.788 340.413 857.891 351.255C865.181 361.909 875.461 380.041 880.882 391.443C886.303 402.658 893.779 419.481 897.144 428.827C900.695 437.986 905.742 453.5 908.546 463.407C911.35 473.127 915.275 491.258 917.331 503.595C919.388 515.932 921.631 537.054 922.752 575.373L932.659 581.728C938.08 585.279 947.426 593.13 953.407 599.111C960.697 606.401 966.678 615 971.538 625.093C975.651 633.318 980.324 645.468 982.006 652.197C984.249 661.169 984.81 669.581 984.062 685.843C983.314 703.787 982.193 709.582 977.707 721.358C974.716 729.021 968.921 740.237 964.809 746.405C960.697 752.386 953.22 761.172 947.986 766.032C942.939 770.705 933.967 777.247 928.36 780.425C922.752 783.602 913.219 787.901 907.051 789.957C900.882 792.201 891.349 794.63 885.742 795.378C880.321 796.313 874.714 798.182 873.405 799.864C872.097 801.36 867.05 808.463 862.19 815.752C857.143 822.855 848.545 834.631 842.75 841.734C836.956 848.837 824.993 862.296 816.394 871.455C807.609 880.614 792.095 894.82 781.814 903.231C771.533 911.456 755.832 922.671 747.234 928.466C738.448 934.073 725.738 941.737 719.196 945.475C712.466 949.214 698.074 956.13 687.419 960.99C676.578 965.85 662.746 971.457 656.577 973.7C650.409 975.756 638.072 979.495 629.474 982.112C620.688 984.542 605.174 988.28 594.893 990.149C584.613 992.206 567.977 994.822 557.883 995.944C547.789 997.066 525.733 998 508.91 998C491.9 998 468.161 996.692 456.011 995.009C443.862 993.514 426.852 990.523 418.253 988.467C409.468 986.411 390.028 980.803 375.262 976.13C357.878 970.523 337.878 962.298 319.933 953.139C304.606 945.475 283.484 933.512 273.203 926.596C262.922 919.68 247.969 908.652 239.744 902.11C231.52 895.381 217.501 882.483 208.715 873.324C199.93 864.165 186.472 848.837 178.808 839.118C170.957 829.211 161.238 815.939 156.938 809.584C151.892 802.294 147.405 797.621 144.789 797.06C142.546 796.687 134.695 795.004 127.592 793.322C120.302 791.827 109.461 787.901 103.292 784.724C97.1238 781.733 87.0301 775.191 80.8617 770.144C73.9457 764.723 65.7212 755.377 59.5528 746.405C53.3844 737.059 47.9637 726.031 44.973 716.685C42.3561 708.46 39.9261 696.123 39.1784 689.581C38.6177 681.543 39.3654 670.889 41.6084 658.739C44.0384 645.094 47.0291 635.748 52.4498 625.093C57.6836 614.813 63.852 606.214 72.2634 597.803C78.9925 591.074 88.5255 583.223 102.358 575.559V557.241C102.358 547.148 103.105 531.259 104.227 521.726C105.161 512.193 107.404 497.987 108.9 489.95C110.582 481.912 114.507 466.585 117.685 455.93C120.863 445.089 126.283 429.014 129.835 420.415C133.386 411.63 139.368 398.546 142.919 391.443C146.471 384.153 152.826 372.377 156.938 365.274C161.051 357.984 168.714 346.208 173.948 339.105C179.182 331.815 188.528 319.665 194.696 312.001C200.865 304.151 213.575 290.319 222.921 281.16C232.08 272 247.221 258.542 256.567 251.065C265.726 243.775 280.119 233.308 288.344 227.887C296.568 222.466 310.774 213.868 320.12 209.008C329.279 204.148 343.672 197.419 351.897 194.055C360.121 190.877 370.215 186.952 374.327 185.643C378.439 184.335 382.738 183.213 384.047 183.213ZM415.45 338.357C419.936 338.357 426.104 340.04 430.403 342.469C435.45 345.273 439.375 349.572 442.179 354.993C445.544 361.348 446.291 365.274 445.544 370.881C444.983 374.994 442.553 381.349 440.123 384.9C437.693 388.639 432.646 392.938 428.908 394.807C425.169 396.49 419.188 397.985 415.45 397.985C411.898 397.985 406.29 396.863 402.926 395.555C399.561 394.06 395.075 390.882 392.832 388.452C390.589 386.022 387.785 380.601 386.664 376.489C384.795 370.881 384.795 366.956 386.29 360.601C387.412 356.115 390.776 349.946 393.58 347.142C396.384 344.526 400.87 341.348 403.3 340.413C405.917 339.292 411.337 338.357 415.45 338.357ZM605.735 338.357C609.473 338.17 616.015 339.853 620.128 341.909C625.112 344.401 628.851 348.139 631.343 353.124C633.399 357.236 635.081 363.965 635.081 368.078C635.081 372.19 633.399 378.919 631.343 383.031C628.913 388.265 625.174 391.817 619.754 394.62C614.146 397.424 609.286 398.359 603.305 397.798C597.697 397.424 592.276 395.368 587.79 392.003C583.678 388.826 579.753 383.779 577.884 378.919C576.014 373.872 575.267 368.638 576.201 364.339C576.762 360.788 579.566 354.619 582.183 350.694C584.8 346.769 589.66 342.47 592.837 340.974C596.015 339.479 601.809 338.357 605.735 338.357Z" fill="#FD1E2A"/>
<path d="M317.504 526.026C323.111 522.848 330.214 519.857 333.205 519.11C336.196 518.362 416.198 517.801 510.78 517.614C660.877 517.427 684.055 517.801 693.027 520.418C698.635 521.913 707.233 526.213 712.093 529.764C717.14 533.315 724.056 540.045 727.607 545.091C731.159 549.951 735.271 558.363 736.953 563.784C739.383 572.008 739.757 590.887 739.757 688.46V688.464C739.757 802.668 739.757 803.416 735.458 815.939C732.654 824.725 728.729 831.454 722.747 837.996C717.701 843.604 710.037 849.211 693.962 856.688L516.387 857.249C342.738 857.623 338.439 857.623 326.289 853.884C316.008 850.894 311.709 848.277 304.232 840.8C299.185 835.753 292.643 826.594 284.606 809.958V566.961L289.466 556.681C292.082 551.073 297.129 543.035 300.868 538.923C304.419 534.811 312.083 529.016 317.504 526.026Z" fill="white"/>
<path d="M139.742 611.635C151.705 609.205 152.266 608.831 171.332 589.205C190.211 569.952 190.958 569.391 197.501 570.513C201.239 571.073 205.725 573.316 207.594 575.746C209.464 578.176 210.959 582.289 210.772 585.279C210.772 589.205 203.108 598.364 172.827 629.58C152.079 651.262 133.013 672.571 130.77 676.87C127.032 683.6 126.658 685.656 128.34 691.263C129.462 694.815 132.265 699.675 134.508 701.731C136.938 703.974 140.864 706.778 143.481 708.086C146.471 709.582 150.584 709.955 154.696 709.021C159.93 707.899 167.78 700.983 195.258 672.758C218.81 648.459 229.838 638.552 231.146 639.86C232.268 640.795 234.324 647.15 235.446 653.879C237.128 663.038 237.128 669.581 235.446 680.983C234.137 690.329 231.333 700.236 227.782 707.152C224.791 713.32 218.997 722.105 214.884 726.778C210.959 731.451 202.734 737.807 196.566 741.171C190.585 744.349 180.117 748.087 173.388 749.396C166.659 750.517 156.565 751.078 150.957 750.517C145.35 749.956 136.004 747.9 130.396 745.657C124.789 743.601 116.751 739.115 112.639 735.564C108.526 732.199 101.61 723.974 97.3112 717.245C91.7036 708.647 88.7129 701.918 87.2175 693.133C85.9091 685.843 85.5352 676.497 86.4698 669.768C87.2175 663.599 89.8344 654.066 92.2644 648.832C94.6944 643.412 100.676 634.813 105.536 629.953C110.583 624.907 117.499 619.299 121.05 617.43C124.602 615.747 133.013 612.944 139.742 611.635Z" fill="white"/>
<path d="M816.021 577.99C816.769 577.055 819.385 574.625 822.002 572.943C824.619 571.073 828.358 569.765 830.414 569.765C832.657 569.952 842.75 578.55 854.713 590.139C874.153 609.205 875.835 610.327 884.621 611.635C889.668 612.196 898.079 615.187 903.313 618.177C908.36 621.168 916.21 627.337 920.51 632.196C924.996 636.869 930.416 644.346 932.659 648.832C936.398 655.562 936.958 659.487 936.958 678.179C936.958 698.179 936.585 700.609 931.351 711.638C927.426 720.049 922.566 726.404 915.463 732.76C909.855 737.807 900.509 743.601 894.901 745.844C887.051 749.022 880.695 749.956 867.798 749.956C858.452 749.956 847.61 749.022 843.498 747.9C839.386 746.592 830.788 742.293 824.245 737.994C816.769 733.134 809.666 726.404 804.058 718.928C799.385 712.385 794.151 702.479 792.469 696.871C790.226 689.955 789.291 680.048 789.291 666.029C789.291 653.692 790.226 643.972 791.534 641.729C793.59 638.365 796.394 640.608 828.918 672.945C848.171 692.011 866.116 708.273 868.732 709.021C871.349 709.769 876.396 709.395 879.948 708.273C883.499 707.152 888.359 704.348 890.602 702.105C893.032 699.675 895.462 695.376 896.397 692.198C897.331 689.207 897.331 683.787 896.397 680.609C895.275 676.31 883.125 662.104 854.713 632.383C822.189 598.364 814.526 589.392 814.526 585.279C814.526 582.289 815.273 579.111 816.021 577.99Z" fill="white"/>
<path d="M371.15 564.718C373.954 562.849 378.627 560.98 381.617 560.419C384.421 559.671 389.468 559.858 392.833 560.793C396.01 561.54 400.496 564.157 402.926 566.587C405.73 569.391 407.599 574.438 408.908 582.849C410.403 592.569 411.899 596.121 416.385 600.233C420.123 603.597 424.983 605.654 430.965 606.588C436.572 607.336 441.619 609.579 444.984 612.57C447.974 615.373 450.965 620.607 451.9 624.906C453.021 629.766 452.647 634.626 451.339 638.925C450.03 642.664 446.479 647.15 442.554 649.58C439.002 652.01 434.142 653.879 431.899 653.879C429.469 653.879 424.609 655.374 421.058 657.244C417.132 659.113 413.207 663.038 411.712 666.59C410.216 669.767 408.908 675.562 408.908 679.113C408.908 682.665 407.599 688.272 406.104 691.263C404.048 695.189 400.683 697.805 394.515 700.048C387.225 702.478 384.234 702.665 378.627 700.983C374.701 699.675 369.841 696.497 367.785 693.693C365.168 690.329 363.86 685.656 364.047 680.422C364.047 676.123 362.552 669.58 360.869 665.842C359 662.104 355.262 657.804 352.458 656.496C349.467 655.001 345.542 653.879 343.486 653.879C341.43 653.879 336.757 652.571 333.205 651.075C329.467 649.58 325.354 645.841 323.859 642.664C322.364 639.673 321.055 633.318 321.055 628.645C321.055 621.729 322.177 619.112 327.224 613.878C331.71 609.018 335.448 607.149 342.551 606.214C349.093 605.093 353.392 603.037 357.131 599.298C360.495 595.747 362.178 592.008 362.178 588.083C362.178 584.718 363.112 578.737 364.047 574.999C365.168 570.512 367.785 566.587 371.15 564.718Z" fill="#FD1E2A"/>
<path d="M604.988 576.868C607.604 570.886 610.595 567.896 615.829 565.653C619.754 563.97 624.427 562.475 626.297 562.475C627.979 562.288 632.278 563.596 635.643 565.092C638.82 566.774 643.306 570.326 645.176 573.129C647.232 575.933 649.101 581.167 649.662 584.718C650.222 588.644 649.288 593.691 647.419 597.429C645.736 600.607 641.624 605.093 638.446 607.149C635.082 609.205 629.1 610.887 625.362 610.887C619.941 610.887 616.577 609.392 611.53 604.906C607.604 601.167 604.24 595.934 603.118 591.821C601.81 586.214 602.184 583.036 604.988 576.868Z" fill="#FD1E2A"/>
<path d="M483.489 582.475C484.611 577.429 487.415 572.569 491.153 569.391C495.639 565.279 498.63 564.157 505.733 564.157C511.714 563.97 516.2 565.279 519.752 567.896C522.556 569.952 526.107 574.251 527.602 577.242C529.098 580.232 530.406 585.653 530.406 589.018C530.406 592.195 528.724 597.803 526.668 601.167C524.238 604.906 520.126 608.27 515.079 610.14C508.723 612.57 505.733 612.757 500.499 611.074C496.947 609.953 492.088 607.149 489.844 604.906C487.601 602.476 484.985 598.364 483.863 595.56C482.492 592.071 482.368 587.709 483.489 582.475Z" fill="#FD1E2A"/>
<path d="M556.949 618.738C559.192 615.373 563.678 611.261 566.669 609.766C570.033 608.27 575.267 607.523 579.006 608.084C582.557 608.644 587.417 610.327 589.847 611.822C592.09 613.317 595.642 618.177 597.511 622.476C599.38 626.962 600.688 633.131 600.315 636.122C599.941 639.112 597.137 644.159 594.333 647.15C591.529 650.141 586.856 653.692 583.679 655.001C579.566 656.683 576.202 656.87 571.529 655.561C567.977 654.627 564.052 653.318 563.117 652.384C561.996 651.636 559.192 648.458 556.949 645.468C554.145 641.729 552.65 637.243 552.837 632.383C552.837 627.897 554.519 622.476 556.949 618.738Z" fill="#FD1E2A"/>
<path d="M659.195 614.813C662.185 611.822 666.484 608.831 668.914 608.457C671.344 608.083 675.083 608.083 677.139 608.457C679.195 608.831 683.307 610.327 686.298 611.448C689.476 612.757 693.214 616.682 695.457 621.168C698.074 626.589 698.822 630.701 697.887 636.122C697.326 640.795 694.896 645.655 691.719 648.832C688.728 651.636 683.307 654.814 679.569 655.748C674.335 657.057 670.784 656.87 666.484 655.001C663.12 653.692 658.821 650.888 656.952 649.019C655.269 646.963 653.026 642.477 652.279 638.925C651.344 635.374 651.344 629.579 652.279 626.402C653.026 623.037 656.204 617.803 659.195 614.813Z" fill="#FD1E2A"/>
<path d="M486.293 656.122C487.601 653.318 491.714 649.58 495.078 647.898C498.63 646.028 504.798 644.533 508.91 644.533C513.023 644.533 518.256 645.841 520.686 647.337C522.929 648.832 526.107 652.758 527.602 655.748C529.098 658.739 530.406 664.347 530.406 667.898C530.406 671.45 528.911 677.057 527.229 680.048C525.359 683.226 521.06 686.964 517.883 688.459C514.518 689.955 509.284 691.263 506.107 691.263C503.116 691.263 498.069 689.955 494.891 688.459C491.901 686.964 487.975 683.039 486.48 680.048C484.985 677.057 483.676 671.45 483.676 667.898C483.676 664.347 484.798 659.113 486.293 656.122Z" fill="#FD1E2A"/>
<path d="M607.978 663.225C610.034 661.169 615.081 658.178 619.194 656.87C623.306 655.374 628.727 654.627 631.343 655.187C633.96 655.748 637.512 657.057 639.381 657.804C641.063 658.739 644.241 662.29 646.297 665.468C648.353 668.833 650.035 674.627 650.035 678.179C650.035 681.73 648.353 687.525 646.297 690.702C644.241 694.067 639.568 698.179 636.016 699.675C632.465 701.17 626.67 702.478 623.493 702.478C618.82 702.291 615.455 700.422 609.848 694.628C602.558 687.338 602.371 686.777 603.305 677.057C603.866 670.515 605.548 665.842 607.978 663.225Z" fill="#FD1E2A"/>
<path d="M326.289 731.077C327.971 728.834 331.523 726.03 334.14 725.096C336.757 724.161 340.682 723.227 343.112 723.227C345.355 723.04 350.028 725.843 353.766 729.582C358.252 734.068 360.309 737.806 360.309 741.732C360.309 744.722 359.187 749.395 358.065 752.012C356.757 754.629 352.645 758.181 349.093 759.863C343.859 762.106 341.243 762.293 335.635 760.611C330.775 759.302 327.597 756.685 325.728 752.947C324.233 749.956 322.924 744.536 322.924 741.171C322.924 737.993 324.42 733.32 326.289 731.077Z" fill="#FD1E2A"/>
<path d="M418.815 730.516C420.684 728.087 424.048 725.657 426.291 724.722C428.535 723.974 432.086 723.227 434.142 723.227C436.198 723.04 440.684 724.722 444.049 726.778C447.787 729.208 450.778 732.946 451.9 737.059C453.395 742.106 453.021 745.096 450.965 750.143C449.096 754.505 445.98 757.62 441.619 759.489C437.32 761.358 433.021 761.732 429.282 760.798C425.918 760.05 421.618 757.059 419.375 754.255C416.945 750.891 415.45 746.218 415.45 741.732C415.45 737.619 416.945 732.946 418.815 730.516Z" fill="#FD1E2A"/>
<path d="M481.62 732.76C482.742 730.516 486.48 727.339 489.844 725.843C493.209 724.348 498.256 723.414 501.434 723.974C504.611 724.535 508.91 726.965 511.153 729.208C513.396 731.451 515.64 736.311 516.387 739.863C517.135 744.722 516.387 748.087 513.583 752.386C510.967 756.685 507.602 759.115 502.929 760.424C497.508 761.732 494.331 761.358 489.844 759.489C486.48 757.994 482.742 754.816 481.62 752.386C480.312 750.143 479.377 745.657 479.377 742.666C479.377 739.676 480.312 735.189 481.62 732.76Z" fill="#FD1E2A"/>
<path d="M544.612 731.077C546.295 728.647 550.22 726.03 553.398 725.096C556.762 724.161 561.435 723.974 564.052 724.348C566.669 724.909 570.22 726.778 572.09 728.46C573.959 730.143 576.202 734.068 576.949 737.059C577.697 740.049 577.697 745.283 576.763 748.274C576.015 751.265 573.398 755.377 570.968 757.059C568.725 758.928 563.678 760.424 559.94 760.424C556.014 760.424 551.528 759.863 549.846 758.928C548.164 758.181 545.547 755.377 544.238 752.386C542.743 749.582 541.622 744.536 541.622 741.171C541.622 737.993 542.93 733.32 544.612 731.077Z" fill="#FD1E2A"/>
<path d="M605.361 730.703C606.109 729.208 609.661 726.965 613.025 725.47C616.39 724.161 621.81 723.414 624.801 723.974C627.979 724.535 631.53 726.03 633.026 727.339C634.521 728.647 636.764 732.386 638.259 735.563C639.942 740.236 640.129 743.414 638.82 748.274C637.886 751.825 635.082 756.125 632.839 757.62C630.409 759.115 625.175 760.424 621.063 760.424C616.951 760.424 611.717 759.115 609.474 757.62C607.044 756.125 604.427 752.012 603.492 748.648C602.558 745.47 602.184 740.61 602.745 737.993C603.305 735.376 604.427 732.199 605.361 730.703Z" fill="#FD1E2A"/>
<path d="M665.176 735.19C666.671 732.199 670.784 728.087 674.335 726.404C677.887 724.535 681.438 723.04 682.373 723.04C683.12 723.04 686.485 724.348 689.85 725.843C693.027 727.339 696.953 730.703 698.261 733.32C699.383 735.937 700.504 740.797 700.504 743.975C700.504 748.274 699.009 751.639 695.457 755.19C691.532 759.115 688.354 760.424 682.747 760.424C678.074 760.424 673.401 759.115 670.223 756.685C667.045 754.442 664.428 750.33 663.868 746.779C663.12 743.227 663.681 738.554 665.176 735.19Z" fill="#FD1E2A"/>
<path d="M541.435 800.238C541.435 793.883 542.369 791.64 547.229 787.714C551.154 784.537 555.454 782.854 559.94 782.854C563.865 782.854 568.725 784.163 571.155 785.658C573.398 787.153 576.202 791.64 577.323 795.378C578.632 800.425 578.632 803.976 577.323 807.528C576.202 810.519 573.398 813.883 571.155 815.378C568.725 816.874 565.174 818.182 563.117 818.369C561.061 818.556 557.51 818.743 555.267 818.556C552.837 818.556 548.911 816.126 546.295 813.135C542.743 809.397 541.435 806.032 541.435 800.238Z" fill="#FD1E2A"/>
<path d="M603.305 794.069C604.24 791.079 607.418 787.153 610.408 785.658C613.212 784.163 618.259 783.041 621.624 782.854C625.923 782.854 629.287 784.537 633.213 788.462C636.951 792.2 638.82 795.939 638.82 799.677C638.82 802.668 637.886 807.154 636.577 809.397C635.456 811.827 633.213 814.631 631.53 815.939C629.848 817.248 624.801 818.369 620.128 818.369C613.773 818.369 610.782 817.435 607.791 814.257C605.548 811.827 603.305 807.715 602.558 804.724C601.997 801.92 602.371 797.06 603.305 794.069Z" fill="#FD1E2A"/>
<path d="M663.307 799.116C663.307 795.939 665.55 791.64 668.728 788.275C672.653 784.163 675.831 782.854 681.251 782.854C685.55 782.667 690.41 784.163 693.588 786.593C696.953 789.085 699.009 792.636 699.756 797.247C700.317 801.172 699.943 806.406 698.822 809.023C697.7 811.64 695.083 814.818 693.027 815.939C690.971 817.248 686.111 818.556 682.373 818.743C677.887 818.93 673.401 817.621 670.223 815.378C667.419 813.509 664.802 810.145 664.241 808.089C663.681 806.032 663.307 801.92 663.307 799.116Z" fill="#FD1E2A"/>
<path d="M323.859 792.574C325.541 790.144 328.906 787.527 330.962 786.593C333.205 785.658 373.58 784.91 420.684 784.91C493.022 784.723 507.041 785.097 511.714 787.527C514.705 789.023 518.256 792.013 519.191 794.069C520.313 796.126 521.06 799.864 521.06 802.481C521.06 805.098 519.004 809.397 512.088 817.435H421.432C333.392 817.435 330.588 817.248 326.85 813.696C324.607 811.64 322.364 806.967 321.803 803.416C321.055 798.929 321.803 795.565 323.859 792.574Z" fill="#FD1E2A"/>
<path d="M367.598 630.327C367.411 625.093 368.72 622.476 373.393 618.177C377.692 614.252 381.43 612.757 386.29 612.757C391.15 612.757 394.515 614.065 398.253 617.803C402.178 621.729 403.487 624.72 403.487 630.514C403.487 636.309 402.178 639.299 398.253 643.225C394.141 647.15 391.337 648.272 385.169 648.272C378.626 648.272 376.383 647.337 372.458 642.664C369.467 639.112 367.785 634.626 367.598 630.327Z" fill="white"/>
</svg>
